<?xml version="1.0" standalone="no"?>
<!DOCTYPE svg PUBLIC "-//W3C//DTD SVG 20010904//EN"
 "http://www.w3.org/TR/2001/REC-SVG-20010904/DTD/svg10.dtd">
<svg version="1.0" xmlns="http://www.w3.org/2000/svg"
 width="2000.000000pt" height="2250.000000pt" viewBox="0 0 2000.000000 2250.000000"
 preserveAspectRatio="xMidYMid meet">

<g transform="translate(0.000000,2250.000000) scale(0.100000,-0.100000)"
fill="#000000" stroke="none">
<path d="M9905 21170 c-98 -8 -129 -15 -190 -40 -22 -9 -136 -13 -416 -15
-339 -2 -390 -4 -410 -19 -31 -21 -71 -20 -119 4 -22 11 -49 20 -62 20 -36 0
-123 -49 -141 -79 -31 -52 -147 -98 -330 -131 -184 -33 -211 -41 -359 -103
-59 -24 -169 -59 -245 -77 -76 -17 -201 -48 -278 -67 -77 -19 -169 -39 -205
-45 -72 -10 -162 -40 -352 -117 -69 -28 -130 -51 -136 -51 -5 0 -34 -11 -63
-24 -92 -40 -113 -40 -276 -1 -81 19 -174 43 -205 52 -48 13 -84 15 -224 9
-111 -5 -173 -11 -188 -20 -11 -8 -42 -17 -67 -20 l-46 -7 -11 43 c-16 62 -50
90 -115 96 -46 4 -55 1 -79 -23 -26 -26 -47 -89 -34 -102 3 -4 22 1 41 10 20
9 56 17 80 17 l45 0 0 -45 c0 -34 -5 -47 -20 -55 -18 -10 -24 -7 -21 13 0 4
-6 7 -14 7 -8 0 -12 -6 -9 -13 2 -7 -7 -24 -21 -37 -14 -13 -25 -27 -25 -32 0
-5 -13 -36 -30 -70 -16 -33 -30 -71 -30 -83 0 -16 10 -30 30 -42 17 -9 30 -20
30 -24 0 -11 -78 -39 -109 -39 -25 0 -31 -7 -54 -59 -14 -33 -29 -77 -32 -98
-3 -21 -34 -114 -68 -207 -74 -201 -97 -233 -221 -300 -127 -69 -196 -125
-381 -306 -93 -92 -191 -181 -217 -199 -26 -17 -68 -59 -94 -94 -61 -81 -294
-318 -364 -370 -77 -57 -208 -186 -298 -292 -42 -49 -110 -129 -152 -176 -135
-154 -224 -259 -260 -307 -19 -26 -61 -73 -92 -104 -32 -31 -58 -61 -58 -66 0
-20 -140 -140 -191 -166 -30 -14 -81 -31 -114 -37 -280 -51 -386 -81 -533
-149 -72 -34 -99 -54 -163 -121 -44 -46 -79 -92 -82 -107 -9 -50 -66 -184 -83
-196 -34 -26 -44 -229 -18 -366 8 -45 26 -112 39 -148 79 -221 80 -344 4 -444
-21 -29 -42 -68 -45 -88 -17 -95 -59 -250 -80 -292 -13 -26 -49 -87 -81 -135
-60 -93 -123 -220 -123 -248 0 -10 -11 -30 -24 -46 -47 -55 -128 -200 -157
-279 -38 -106 -121 -269 -165 -326 -50 -67 -62 -92 -120 -259 -28 -82 -75
-204 -104 -270 -108 -250 -103 -233 -97 -315 5 -75 -1 -110 -43 -240 -10 -30
-21 -75 -24 -100 -9 -58 -119 -331 -156 -384 -15 -23 -55 -71 -89 -108 -76
-82 -91 -115 -141 -313 -55 -214 -63 -303 -57 -573 4 -205 8 -237 33 -337 30
-118 34 -227 13 -294 -17 -51 -121 -191 -168 -225 -44 -32 -109 -110 -191
-228 -52 -76 -53 -78 -42 -116 24 -79 81 -122 162 -122 83 0 166 54 206 133
15 29 52 88 82 132 31 44 79 113 107 153 27 41 62 81 77 90 26 15 29 15 65 -6
21 -13 70 -37 108 -55 168 -76 302 -146 329 -173 39 -39 86 -141 86 -187 0
-21 11 -64 25 -97 30 -71 45 -163 45 -281 0 -70 12 -139 64 -365 87 -381 101
-460 101 -589 0 -109 0 -111 -40 -188 -30 -58 -56 -92 -102 -133 -56 -49 -63
-59 -63 -92 0 -32 8 -45 54 -91 41 -41 55 -62 58 -90 3 -20 15 -72 27 -116 26
-90 30 -169 11 -205 -7 -14 -27 -39 -46 -57 -20 -18 -34 -42 -34 -55 0 -32
-84 -155 -123 -179 -26 -16 -44 -19 -89 -16 l-58 5 -32 -61 c-23 -46 -68 -98
-173 -202 -123 -122 -146 -150 -180 -220 -32 -66 -58 -99 -148 -189 -60 -60
-113 -120 -118 -134 -7 -19 -6 -40 6 -76 32 -97 -2 -258 -62 -289 -46 -25 -93
-81 -100 -119 -5 -31 -2 -38 22 -54 42 -27 88 -23 139 13 87 62 107 51 117
-61 5 -66 10 -78 66 -162 66 -98 103 -166 103 -186 0 -7 -16 -23 -34 -36 -35
-24 -148 -145 -200 -214 -26 -35 -29 -37 -75 -31 -40 5 -51 2 -77 -20 -44 -38
-82 -112 -68 -134 14 -22 77 -28 133 -13 31 8 50 23 85 69 29 37 56 61 73 66
15 3 67 29 114 56 47 27 102 55 121 63 l35 15 84 -85 c46 -46 111 -100 145
-120 86 -51 166 -132 242 -249 78 -120 180 -228 283 -301 42 -30 101 -84 131
-121 l55 -67 -29 -50 c-16 -28 -44 -67 -62 -86 -37 -40 -66 -100 -66 -135 0
-29 43 -65 77 -65 18 0 48 23 102 75 78 76 101 86 142 65 10 -6 19 -18 19 -28
0 -9 7 -26 15 -36 14 -19 11 -22 -49 -50 -77 -37 -232 -176 -197 -176 12 0 39
9 59 19 61 31 107 36 158 16 43 -16 45 -16 77 4 80 50 104 59 192 66 50 4 104
13 122 20 l32 13 -30 79 c-16 43 -31 82 -32 88 -3 12 131 51 224 64 151 21
538 52 650 51 113 0 117 -1 157 -30 47 -34 76 -82 69 -115 -3 -21 -1 -22 20
-14 13 5 59 29 103 55 108 62 203 97 277 102 58 3 65 2 120 -36 87 -59 154
-119 221 -198 112 -132 227 -247 302 -302 86 -64 340 -289 340 -302 0 -5 48
-51 106 -102 59 -51 146 -128 193 -172 112 -103 180 -154 270 -205 41 -23 95
-59 120 -79 25 -21 66 -48 91 -62 25 -13 74 -43 110 -66 36 -23 84 -51 108
-63 46 -23 268 -78 372 -92 149 -20 219 -65 294 -192 51 -86 65 -125 81 -230
5 -31 21 -53 79 -111 76 -75 110 -134 141 -240 20 -67 22 -64 -65 -96 -30 -12
-62 -23 -70 -27 -10 -4 -5 -8 17 -14 18 -5 35 -14 38 -19 3 -6 36 -10 73 -10
70 0 135 -22 161 -53 15 -19 9 -93 -15 -172 -20 -67 -18 -118 5 -139 28 -26
97 -43 200 -51 67 -6 94 -12 100 -23 8 -14 -12 -105 -38 -174 -6 -15 -15 -65
-21 -111 -13 -98 1 -264 27 -307 34 -59 128 -96 199 -80 20 5 77 36 128 69 50
34 96 61 102 61 18 0 222 215 243 257 27 54 26 95 -3 163 -29 66 -60 100 -93
100 -53 0 -265 102 -314 151 -36 36 -13 117 40 139 58 24 65 42 69 163 5 139
8 144 107 149 89 4 120 25 111 72 -4 17 -14 41 -23 55 -10 15 -31 55 -49 91
-17 36 -48 85 -67 110 -37 45 -42 66 -9 37 11 -10 35 -17 59 -17 55 0 99 -17
118 -46 12 -18 24 -24 54 -24 21 0 74 -6 117 -14 44 -8 101 -17 127 -21 62 -8
106 -47 130 -114 23 -66 93 -137 179 -180 51 -25 74 -32 95 -26 15 4 42 7 58
8 27 2 31 -2 40 -38 15 -59 57 -130 80 -133 13 -2 45 20 90 59 90 80 134 99
256 110 55 4 127 14 162 20 90 18 326 15 411 -5 38 -9 99 -32 135 -50 94 -49
205 -81 378 -110 235 -40 293 -71 344 -184 23 -51 35 -66 63 -77 48 -20 105
-19 157 4 53 24 259 84 265 78 3 -2 22 -54 42 -116 30 -87 44 -115 63 -125 13
-7 49 -28 79 -46 72 -45 160 -54 203 -20 46 37 57 70 63 202 6 122 6 123 -21
162 -44 64 -48 85 -30 133 23 60 39 66 153 58 114 -8 148 2 240 65 145 99 252
92 377 -22 52 -47 66 -70 126 -208 27 -61 108 -168 142 -187 28 -16 79 -16
111 -1 29 13 66 81 66 121 0 15 -12 57 -26 94 -20 49 -27 87 -27 138 -1 74 9
102 52 148 38 42 72 56 152 66 80 10 100 24 151 104 32 50 27 46 390 284 53
35 102 63 110 63 19 0 182 52 273 88 28 11 88 32 135 47 112 37 207 85 264
135 26 22 59 43 74 46 15 3 90 36 166 72 134 63 144 66 249 76 79 7 124 6 166
-2 94 -20 119 -16 157 22 31 31 34 40 34 90 l0 56 53 34 c28 19 76 55 106 80
30 25 91 66 135 91 45 25 116 69 158 97 43 29 117 80 165 112 119 80 223 158
253 191 28 30 134 95 155 95 21 0 159 74 204 109 95 75 216 151 242 151 15 0
53 -18 85 -39 75 -50 103 -57 143 -37 48 25 57 72 32 175 l-20 84 55 76 c140
194 150 205 205 238 31 17 84 63 118 100 35 37 89 91 122 118 32 28 116 117
186 200 125 147 567 596 692 705 106 91 254 321 342 530 13 30 38 77 56 103
36 54 67 117 144 292 53 123 137 295 228 468 28 53 51 105 51 116 0 10 53 128
119 262 132 272 165 346 221 499 21 58 55 148 75 200 21 52 41 123 46 157 5
34 20 93 35 130 30 81 63 199 64 230 0 42 93 43 151 2 15 -10 32 -19 38 -19
16 0 108 -48 116 -60 18 -30 135 16 135 53 0 21 -215 247 -235 247 -7 0 -31
14 -53 30 -59 42 -59 37 43 470 60 256 73 340 85 530 7 119 16 167 75 395 37
143 73 272 81 287 8 15 46 53 85 85 39 32 80 73 91 91 11 18 33 39 49 47 50
26 51 97 3 160 -34 45 -43 133 -20 201 40 119 9 223 -103 339 -37 38 -87 98
-110 133 -24 34 -49 62 -56 62 -16 0 -88 139 -109 210 -12 38 -20 121 -26 265
-7 167 -14 234 -36 330 -14 66 -30 167 -34 225 -4 58 -16 143 -25 190 -14 67
-16 112 -11 216 7 163 -3 202 -71 279 -45 50 -54 69 -103 218 -55 168 -80 256
-105 368 -14 62 -31 114 -124 379 -23 63 -41 122 -41 130 0 8 -25 64 -55 125
-30 60 -55 118 -55 129 0 12 -23 73 -50 136 -27 63 -50 121 -50 129 0 40 -159
391 -246 541 -23 41 -65 125 -92 185 -51 115 -104 205 -170 290 -21 28 -54 75
-72 105 -19 30 -47 71 -62 91 -15 20 -28 43 -28 51 0 14 -11 36 -137 278 -39
74 -97 200 -128 280 -31 80 -71 170 -88 200 -34 61 -414 458 -497 521 -27 20
-73 43 -102 50 -48 12 -67 27 -193 149 -81 77 -181 162 -235 199 -52 36 -113
81 -136 101 -22 20 -72 56 -111 78 -77 45 -141 111 -150 153 -4 20 -25 39 -80
74 -41 26 -120 91 -176 144 -56 53 -163 142 -237 198 -75 56 -142 108 -149
117 -7 9 -23 16 -36 16 -12 0 -48 17 -81 38 -32 21 -90 56 -129 77 -38 22
-124 80 -191 131 -108 82 -196 134 -228 134 -40 0 -290 143 -351 200 -16 16
-87 56 -157 89 -80 38 -146 78 -181 109 -73 63 -128 92 -271 141 -79 28 -135
41 -170 41 -79 0 -333 93 -425 154 -38 26 -64 36 -91 36 -128 0 -279 39 -374
97 -52 32 -71 37 -151 44 -50 4 -144 21 -209 38 -65 17 -132 31 -149 31 -17 0
-40 8 -51 18 -37 33 -107 52 -191 52 -104 0 -200 15 -300 44 -61 18 -115 25
-230 30 -82 4 -181 13 -220 21 -42 9 -126 15 -210 15 -87 1 -163 6 -200 15
-33 8 -92 15 -131 15 -53 0 -93 8 -158 30 -49 17 -120 35 -160 41 -39 5 -91
14 -116 19 -63 13 -504 20 -625 10z m-4115 -810 c0 -5 -11 -17 -25 -26 -20
-13 -40 -16 -89 -12 -78 7 -97 16 -71 35 22 15 185 19 185 3z m4361 -350 c20
-6 52 -20 70 -33 33 -22 45 -38 141 -189 139 -220 317 -338 464 -308 80 17
158 71 331 230 186 171 239 202 364 208 135 7 183 -31 181 -144 l0 -64 101
-79 c56 -43 203 -167 326 -276 124 -108 239 -206 255 -218 17 -12 78 -58 136
-103 114 -89 242 -157 500 -267 224 -96 267 -101 505 -66 116 17 151 19 205
10 36 -6 95 -12 133 -15 37 -2 73 -8 80 -13 6 -6 57 -13 112 -17 133 -8 241
-35 367 -92 57 -25 162 -72 233 -104 182 -80 185 -82 185 -95 0 -6 11 -17 26
-23 61 -28 265 -166 329 -222 40 -35 130 -96 213 -143 80 -45 163 -98 186
-118 23 -19 61 -49 86 -66 91 -62 335 -299 420 -408 47 -60 139 -163 206 -229
68 -69 174 -191 245 -284 68 -89 147 -192 176 -229 28 -36 77 -116 109 -177
32 -61 73 -129 93 -152 47 -53 226 -335 281 -441 39 -75 42 -88 37 -135 -3
-29 -21 -105 -41 -169 -71 -236 -89 -438 -48 -552 59 -164 250 -330 489 -424
144 -57 177 -103 193 -273 7 -72 20 -130 46 -203 20 -56 52 -165 70 -242 38
-156 77 -281 105 -336 18 -35 83 -320 149 -649 31 -156 37 -213 65 -660 9
-135 20 -281 25 -325 18 -146 22 -338 10 -445 -6 -58 -15 -193 -20 -300 -5
-107 -16 -231 -24 -275 -8 -44 -25 -154 -36 -245 -24 -185 -34 -235 -114 -540
-31 -118 -67 -275 -81 -349 -44 -228 -142 -509 -211 -602 -13 -18 -24 -43 -24
-55 0 -35 -68 -261 -104 -349 -19 -44 -37 -98 -40 -120 -6 -41 -98 -233 -382
-796 -90 -180 -164 -336 -164 -347 0 -11 -16 -40 -36 -64 -59 -70 -107 -146
-174 -273 -73 -138 -124 -217 -190 -295 -26 -30 -83 -109 -128 -175 -44 -66
-93 -136 -108 -156 -87 -110 -156 -193 -219 -264 -39 -44 -97 -114 -128 -156
-31 -42 -90 -108 -132 -147 -41 -40 -75 -78 -75 -86 0 -18 -38 -55 -91 -89
-24 -15 -78 -57 -119 -92 -172 -148 -220 -185 -314 -241 -54 -32 -169 -116
-255 -186 -86 -70 -192 -151 -235 -180 -645 -430 -875 -578 -1007 -648 -85
-45 -172 -93 -194 -105 -22 -13 -74 -33 -115 -45 -75 -22 -175 -64 -240 -101
-19 -11 -64 -34 -100 -52 l-65 -32 -171 3 -172 3 -238 -60 c-137 -34 -305 -85
-394 -118 l-155 -57 -182 -4 c-171 -3 -183 -2 -202 17 -31 31 -51 114 -51 217
0 85 -2 95 -26 124 -41 48 -78 63 -135 55 -81 -11 -141 -86 -119 -148 5 -17
10 -51 10 -78 l0 -47 -40 -7 c-26 -4 -51 -18 -73 -42 -65 -67 -163 -50 -226
39 -59 85 -156 178 -183 178 -26 0 -38 -16 -38 -50 0 -11 -8 -35 -17 -55 -23
-48 -53 -55 -97 -21 -19 14 -40 26 -47 26 -7 0 -21 8 -31 17 -18 17 -22 16
-66 -7 -36 -19 -48 -32 -52 -54 -5 -32 -51 -73 -69 -62 -6 4 -11 27 -11 51 0
54 -26 122 -51 135 -40 22 -88 12 -132 -28 -63 -57 -88 -72 -123 -72 -18 0
-116 20 -218 45 -103 25 -196 45 -208 45 -11 0 -42 -8 -69 -17 -48 -17 -51
-17 -112 5 -34 12 -72 22 -84 22 -13 0 -46 -21 -78 -50 -41 -37 -64 -50 -88
-51 -54 -2 -80 2 -122 17 -64 23 -295 68 -349 67 -37 0 -53 -5 -65 -20 -28
-36 -57 -43 -168 -43 -90 0 -113 3 -141 20 -18 11 -35 27 -38 35 -4 8 -14 15
-23 15 -9 0 -25 7 -35 15 -19 14 -22 11 -52 -55 l-33 -70 -83 0 c-107 0 -122
5 -136 42 -11 29 -13 30 -54 23 -142 -23 -269 -1 -566 99 -136 46 -257 88
-268 94 -27 16 -261 127 -304 144 -110 46 -403 186 -447 214 -29 18 -59 44
-68 58 -10 15 -30 26 -53 31 -63 11 -193 81 -287 154 -49 38 -126 92 -170 119
-44 28 -125 91 -180 141 -449 408 -611 537 -810 645 -87 47 -175 112 -175 130
0 7 -15 24 -34 37 -19 13 -61 47 -93 74 -33 28 -104 87 -159 131 -122 100
-253 236 -319 329 -51 73 -192 247 -283 349 -29 33 -69 89 -89 125 -20 36 -57
89 -82 117 -62 70 -148 195 -234 341 -40 68 -106 174 -149 236 -142 211 -343
582 -388 718 -12 35 -55 123 -96 195 -52 92 -87 168 -114 250 -21 66 -59 178
-84 250 -25 72 -80 252 -121 400 -42 148 -87 292 -100 319 -23 48 -29 83 -81
430 -9 61 -27 142 -40 181 -31 93 -44 184 -44 319 0 61 -7 173 -15 250 -9 77
-20 248 -25 380 -6 132 -14 272 -20 310 -12 91 -12 477 1 580 5 44 13 226 19
405 10 344 16 394 65 510 14 34 33 96 42 138 8 42 26 102 40 132 13 30 58 141
99 245 41 105 79 199 83 210 5 11 20 35 35 52 81 96 354 530 433 688 64 126
96 176 166 254 99 110 212 190 329 230 30 10 95 37 144 59 49 22 112 49 139
58 129 47 341 227 438 372 151 226 182 391 182 967 l0 370 -38 175 c-43 203
-45 240 -14 300 17 35 34 51 76 73 78 39 182 37 395 -5 l161 -33 385 0 385 0
80 38 c137 65 234 90 360 90 98 1 120 -3 201 -31 106 -36 119 -35 215 25 61
37 64 38 175 41 142 5 203 -11 277 -72 30 -24 85 -63 123 -87 104 -64 125 -89
202 -237 79 -153 110 -188 252 -289 114 -80 120 -83 188 -83 66 0 130 17 224
59 74 34 80 40 101 101 50 147 185 654 194 732 l6 48 -35 0 c-38 0 -67 -25
-112 -98 -21 -34 -33 -79 -57 -220 -17 -97 -34 -211 -39 -252 -11 -88 -67
-286 -87 -305 -14 -15 -49 -6 -83 21 -8 6 -27 14 -42 18 -15 3 -42 19 -60 34
-18 16 -54 43 -79 60 -48 32 -69 70 -69 122 0 14 -16 53 -36 86 -20 32 -49 96
-64 141 -59 171 -46 244 44 256 56 8 141 50 156 76 5 11 10 62 10 114 0 84 3
101 29 153 48 96 89 187 96 214 14 50 106 227 147 287 76 108 98 128 158 141
76 17 115 44 204 139 88 95 153 192 186 278 13 33 43 105 68 160 24 55 46 110
49 122 3 12 19 39 37 59 l31 36 40 -23 c22 -12 56 -35 76 -51 48 -36 86 -50
121 -43 18 4 77 55 167 143 134 133 183 190 269 319 92 136 194 198 354 214
51 5 125 15 163 24 76 16 243 13 306 -5z"/>
<path d="M6403 15130 c-434 -45 -908 -299 -1332 -714 -458 -449 -785 -999
-891 -1501 -26 -123 -38 -396 -21 -501 45 -293 189 -551 651 -1169 188 -251
344 -470 413 -577 129 -203 193 -435 169 -614 -22 -157 -75 -275 -207 -456
-69 -95 -343 -374 -553 -563 -291 -263 -518 -559 -586 -763 -67 -202 -55 -432
31 -581 79 -137 257 -254 460 -302 111 -27 290 -29 415 -5 348 66 743 309
1122 691 496 500 868 1135 1002 1710 26 112 28 135 29 335 0 250 -14 346 -76
533 -107 325 -270 581 -570 893 -451 470 -571 647 -601 889 -27 214 34 442
170 635 57 81 213 243 312 323 83 67 326 229 523 350 342 210 476 395 477 659
0 287 -141 511 -405 643 -149 74 -340 105 -532 85z"/>
<path d="M10880 14747 c-189 -57 -339 -177 -504 -401 -300 -406 -545 -1103
-710 -2016 -109 -604 -164 -1168 -173 -1770 -9 -627 29 -1155 123 -1715 99
-588 289 -1029 519 -1202 100 -75 125 -85 187 -72 175 37 311 174 447 447 224
449 352 1094 426 2147 16 227 34 924 35 1334 0 129 2 232 4 230 2 -2 32 -141
66 -309 141 -697 340 -1485 531 -2099 254 -817 551 -1384 784 -1501 75 -37
178 -36 260 4 248 121 510 631 751 1461 120 411 285 1107 369 1550 33 177 185
1077 185 1099 0 5 2 7 4 5 3 -3 12 -85 21 -184 173 -1953 449 -3426 754 -4033
69 -137 150 -227 228 -253 86 -28 223 9 318 87 341 279 513 1321 491 2969 -10
807 -42 1268 -127 1875 -108 764 -240 1263 -440 1662 -197 392 -436 624 -706
684 -108 24 -279 16 -353 -16 -243 -104 -521 -418 -801 -904 -88 -152 -276
-527 -356 -711 -125 -284 -400 -996 -478 -1233 -9 -29 -19 -52 -21 -50 -1 2
-50 141 -107 308 -132 385 -204 574 -332 875 -384 897 -637 1342 -917 1611
-117 112 -172 138 -303 141 -80 2 -115 -2 -175 -20z"/>
<path d="M8005 8866 c-93 -19 -168 -46 -266 -97 -104 -54 -171 -119 -212 -206
-27 -59 -32 -82 -35 -167 -8 -174 39 -281 187 -426 134 -132 296 -223 498
-277 85 -24 117 -27 243 -27 130 0 152 3 217 26 308 110 461 347 398 616 -58
245 -301 448 -645 538 -119 31 -285 40 -385 20z"/>
</g>
</svg>
