<svg width="1554" height="409" viewBox="0 0 1554 409" fill="none" xmlns="http://www.w3.org/2000/svg">
<path d="M236.1 326.545H225.23L266.793 218.469H277.594L236.1 326.545Z" fill="#0071BC"/>
<path d="M246.1 326.545H235.23L276.793 218.469H287.594L246.1 326.545Z" fill="#0071BC"/>
<path d="M256.1 326.545H245.23L286.793 218.469H297.594L256.1 326.545Z" fill="#0071BC"/>
<path d="M64.4531 215.773L217.285 277.541V325.393L17.5781 232.863V197.219L217.285 104.934V152.785L64.4531 215.773Z" fill="#F73C4A"/>
<path d="M513.092 214.309L351.715 151.076V104.689L560.211 196.975V232.619L351.715 325.148V278.273L513.092 214.309Z" fill="#0071BC"/>
<path d="M284.1 212.545H273.23L314.793 104.469H325.594L284.1 212.545Z" fill="#F73C4A"/>
<path d="M294.1 212.545H283.23L324.793 104.469H335.594L294.1 212.545Z" fill="#F73C4A"/>
<path d="M304.1 212.545H293.23L334.793 104.469H345.594L304.1 212.545Z" fill="#F73C4A"/>
<path d="M595.833 153.882H613.762V264H595.833V153.882ZM629.002 153.882C638.266 153.882 646.384 155.376 653.357 158.364C660.429 161.253 666.256 165.138 670.838 170.019C675.52 174.899 679.006 180.478 681.297 186.753C683.588 192.929 684.734 199.304 684.734 205.878C684.734 214.942 683.738 222.712 681.746 229.187C679.853 235.562 677.413 240.94 674.424 245.323C671.436 249.606 668.049 252.993 664.264 255.483C660.579 257.974 656.993 259.866 653.506 261.161C650.02 262.356 646.833 263.153 643.944 263.552C641.055 263.851 638.914 264 637.519 264H619.888V250.852H631.542C643.695 250.852 652.46 246.967 657.839 239.197C663.218 231.428 665.908 220.172 665.908 205.43C665.908 200.848 665.36 196.315 664.264 191.833C663.168 187.351 661.027 183.316 657.839 179.73C654.751 176.045 650.518 173.106 645.139 170.915C639.76 168.624 632.788 167.479 624.221 167.479H619.888V153.882H629.002ZM740.884 178.983C746.263 179.481 751.094 180.926 755.377 183.316C759.76 185.707 763.495 188.795 766.583 192.58C769.671 196.365 772.012 200.698 773.605 205.579C775.299 210.46 776.145 215.54 776.145 220.819C776.145 223.21 775.996 225.601 775.697 227.991H724.448V214.843H758.963C758.963 212.253 758.515 209.763 757.618 207.372C756.821 204.981 755.576 202.79 753.883 200.798C752.289 198.706 750.396 196.963 748.205 195.568C746.014 194.174 743.573 193.327 740.884 193.028V178.983ZM740.286 249.955C741.382 249.955 742.726 249.855 744.32 249.656C746.014 249.357 747.757 248.909 749.55 248.312C751.442 247.614 753.285 246.768 755.078 245.771C756.971 244.775 758.614 243.58 760.009 242.186L766.583 252.196C763.296 256.28 759.461 259.368 755.078 261.46C750.695 263.552 745.117 264.598 738.344 264.598C732.865 264.598 727.735 263.502 722.954 261.311C718.173 259.02 714.089 255.932 710.702 252.047C707.315 248.162 704.626 243.63 702.634 238.45C700.642 233.271 699.645 227.692 699.645 221.716C699.645 216.038 700.542 210.659 702.335 205.579C704.227 200.499 706.767 196.066 709.955 192.281C713.142 188.396 716.828 185.259 721.012 182.868C725.295 180.478 729.877 179.133 734.758 178.834V193.178C731.072 193.875 728.034 195.369 725.643 197.66C723.253 199.951 721.36 202.591 719.966 205.579C718.671 208.468 717.725 211.456 717.127 214.544C716.629 217.632 716.38 220.271 716.38 222.463C716.38 226.348 716.828 229.983 717.725 233.37C718.721 236.657 720.215 239.546 722.207 242.036C724.199 244.427 726.64 246.369 729.528 247.863C732.517 249.258 736.102 249.955 740.286 249.955ZM809.435 179.73L811.377 188.247V264H793.298V179.73H809.435ZM856.052 188.994C857.745 190.688 859.04 192.68 859.937 194.971C860.933 197.162 861.63 199.503 862.029 201.993C862.527 204.384 862.825 206.824 862.925 209.314C863.025 211.805 863.075 214.245 863.075 216.636V261.012V264H844.846V218.13C844.846 214.743 844.697 211.506 844.398 208.418C844.099 205.33 843.402 202.591 842.306 200.2C841.21 197.81 839.716 195.967 837.824 194.672C835.931 193.277 833.291 192.58 829.905 192.58C828.51 192.58 826.617 192.829 824.227 193.327C821.936 193.726 819.695 194.423 817.503 195.419V183.914C820.193 182.52 823.081 181.324 826.169 180.328C829.357 179.332 832.445 178.834 835.433 178.834C839.915 178.834 843.7 179.78 846.788 181.673C849.876 183.466 852.964 185.906 856.052 188.994ZM904.432 238.45C904.432 241.837 904.881 244.477 905.777 246.369C906.674 248.262 907.919 249.706 909.512 250.702C911.206 251.698 913.049 252.346 915.041 252.645C917.133 252.844 919.324 252.943 921.615 252.943V264C920.32 264.199 919.025 264.349 917.73 264.448C916.634 264.548 915.29 264.598 913.696 264.598C912.202 264.697 910.708 264.747 909.214 264.747C907.719 264.747 906.175 264.697 904.582 264.598C903.088 264.498 901.793 264.349 900.697 264.149C897.31 263.552 894.671 262.107 892.778 259.816C890.885 257.426 889.441 254.836 888.445 252.047C887.549 249.158 886.951 246.369 886.652 243.68C886.453 240.99 886.353 238.898 886.353 237.404V191.982H875.297V179.73H886.353V155.824H904.432V179.73H917.88V191.982H904.432V238.45ZM974.328 178.983C979.707 179.481 984.538 180.926 988.821 183.316C993.204 185.707 996.94 188.795 1000.03 192.58C1003.12 196.365 1005.46 200.698 1007.05 205.579C1008.74 210.46 1009.59 215.54 1009.59 220.819C1009.59 223.21 1009.44 225.601 1009.14 227.991H957.893V214.843H992.407C992.407 212.253 991.959 209.763 991.063 207.372C990.266 204.981 989.021 202.79 987.327 200.798C985.733 198.706 983.841 196.963 981.65 195.568C979.458 194.174 977.018 193.327 974.328 193.028V178.983ZM973.731 249.955C974.826 249.955 976.171 249.855 977.765 249.656C979.458 249.357 981.201 248.909 982.994 248.312C984.887 247.614 986.73 246.768 988.523 245.771C990.415 244.775 992.059 243.58 993.453 242.186L1000.03 252.196C996.74 256.28 992.905 259.368 988.523 261.46C984.14 263.552 978.562 264.598 971.788 264.598C966.31 264.598 961.18 263.502 956.399 261.311C951.617 259.02 947.533 255.932 944.147 252.047C940.76 248.162 938.07 243.63 936.078 238.45C934.086 233.271 933.09 227.692 933.09 221.716C933.09 216.038 933.986 210.659 935.779 205.579C937.672 200.499 940.212 196.066 943.4 192.281C946.587 188.396 950.273 185.259 954.456 182.868C958.739 180.478 963.321 179.133 968.202 178.834V193.178C964.517 193.875 961.479 195.369 959.088 197.66C956.697 199.951 954.805 202.591 953.41 205.579C952.115 208.468 951.169 211.456 950.571 214.544C950.073 217.632 949.824 220.271 949.824 222.463C949.824 226.348 950.273 229.983 951.169 233.37C952.165 236.657 953.659 239.546 955.651 242.036C957.644 244.427 960.084 246.369 962.973 247.863C965.961 249.258 969.547 249.955 973.731 249.955ZM1096.97 147.905V264H1079.78L1078.74 253.989V147.905H1096.97ZM1021.36 220.67C1021.36 212.9 1022.41 206.376 1024.5 201.097C1026.69 195.817 1029.48 191.534 1032.87 188.247C1036.26 184.96 1039.99 182.619 1044.07 181.225C1048.26 179.73 1052.34 178.983 1056.33 178.983C1059.41 178.983 1062.35 179.332 1065.14 180.029C1067.93 180.727 1070.42 181.723 1072.61 183.018V198.855C1070.92 197.062 1069.03 195.618 1066.94 194.522C1064.84 193.427 1062.5 192.879 1059.91 192.879C1056.82 192.879 1054.09 193.676 1051.69 195.27C1049.3 196.764 1047.26 198.855 1045.57 201.545C1043.98 204.234 1042.73 207.322 1041.83 210.809C1040.94 214.295 1040.49 218.03 1040.49 222.015C1040.49 225.999 1040.99 229.734 1041.98 233.221C1042.98 236.607 1044.32 239.596 1046.02 242.186C1047.71 244.775 1049.75 246.817 1052.14 248.312C1054.63 249.806 1057.32 250.553 1060.21 250.553C1065.09 250.553 1069.23 248.61 1072.61 244.726V260.265C1070.22 261.56 1067.43 262.655 1064.25 263.552C1061.16 264.349 1057.87 264.747 1054.38 264.747C1050.4 264.747 1046.47 264.05 1042.58 262.655C1038.8 261.161 1035.41 258.771 1032.42 255.483C1028.64 251.2 1025.85 245.921 1024.05 239.646C1022.26 233.271 1021.36 226.945 1021.36 220.67Z" fill="#0071BC"/>
<path d="M1211.21 175.099C1208.92 172.509 1206.48 170.566 1203.89 169.271C1201.3 167.977 1198.51 167.229 1195.52 167.03V152.238C1206.68 152.736 1216.04 156.671 1223.61 164.042L1211.21 175.099ZM1195.52 249.955C1198.51 249.656 1201.3 248.859 1203.89 247.564C1206.58 246.27 1209.02 244.377 1211.21 241.887L1223.61 252.794C1219.83 256.479 1215.59 259.318 1210.91 261.311C1206.23 263.303 1201.1 264.448 1195.52 264.747V249.955ZM1147.11 208.418C1147.11 199.553 1148.16 191.733 1150.25 184.96C1152.44 178.187 1155.43 172.459 1159.21 167.777C1163 163.096 1167.43 159.46 1172.51 156.87C1177.69 154.28 1183.32 152.736 1189.39 152.238V167.18C1186.11 167.678 1183.02 168.823 1180.13 170.616C1177.24 172.31 1174.7 174.8 1172.51 178.087C1170.32 181.374 1168.58 185.558 1167.28 190.638C1166.09 195.618 1165.44 201.545 1165.34 208.418C1165.44 215.391 1166.09 221.367 1167.28 226.348C1168.58 231.328 1170.32 235.512 1172.51 238.898C1174.7 242.285 1177.24 244.875 1180.13 246.668C1183.12 248.461 1186.21 249.557 1189.39 249.955V264.598C1183.32 264.199 1177.69 262.705 1172.51 260.115C1167.43 257.525 1163 253.89 1159.21 249.208C1155.43 244.526 1152.44 238.799 1150.25 232.025C1148.16 225.152 1147.11 217.283 1147.11 208.418ZM1280.36 179.282C1285.84 179.581 1290.82 180.926 1295.3 183.316C1299.78 185.607 1303.52 188.695 1306.51 192.58C1309.59 196.365 1311.98 200.798 1313.68 205.878C1315.37 210.958 1316.22 216.387 1316.22 222.164C1316.22 227.941 1315.32 233.37 1313.53 238.45C1311.83 243.431 1309.44 247.813 1306.36 251.599C1303.27 255.284 1299.48 258.272 1295 260.563C1290.52 262.854 1285.64 264.199 1280.36 264.598V250.254C1285.34 249.158 1289.37 246.021 1292.46 240.841C1295.65 235.661 1297.24 229.436 1297.24 222.164C1297.24 218.479 1296.84 215.042 1296.05 211.854C1295.35 208.567 1294.25 205.629 1292.76 203.039C1291.27 200.449 1289.47 198.308 1287.38 196.614C1285.29 194.921 1282.95 193.825 1280.36 193.327V179.282ZM1238.67 221.865C1238.67 216.088 1239.52 210.709 1241.21 205.729C1242.9 200.748 1245.3 196.415 1248.38 192.729C1251.57 188.944 1255.36 185.906 1259.74 183.615C1264.12 181.324 1268.95 179.93 1274.23 179.432V193.327C1269.25 194.423 1265.27 197.561 1262.28 202.74C1259.29 207.92 1257.8 214.146 1257.8 221.417C1257.8 225.103 1258.15 228.589 1258.84 231.876C1259.64 235.163 1260.74 238.102 1262.13 240.691C1263.52 243.281 1265.22 245.423 1267.21 247.116C1269.3 248.81 1271.64 249.855 1274.23 250.254V264.598C1268.75 264.199 1263.82 262.854 1259.44 260.563C1255.06 258.173 1251.32 255.085 1248.23 251.3C1245.15 247.515 1242.76 243.082 1241.06 238.002C1239.47 232.922 1238.67 227.543 1238.67 221.865ZM1402.25 147.905V264H1385.07L1384.02 253.989V147.905H1402.25ZM1326.65 220.67C1326.65 212.9 1327.69 206.376 1329.78 201.097C1331.98 195.817 1334.76 191.534 1338.15 188.247C1341.54 184.96 1345.27 182.619 1349.36 181.225C1353.54 179.73 1357.63 178.983 1361.61 178.983C1364.7 178.983 1367.64 179.332 1370.42 180.029C1373.21 180.727 1375.7 181.723 1377.9 183.018V198.855C1376.2 197.062 1374.31 195.618 1372.22 194.522C1370.13 193.427 1367.79 192.879 1365.2 192.879C1362.11 192.879 1359.37 193.676 1356.98 195.27C1354.59 196.764 1352.55 198.855 1350.85 201.545C1349.26 204.234 1348.01 207.322 1347.12 210.809C1346.22 214.295 1345.77 218.03 1345.77 222.015C1345.77 225.999 1346.27 229.734 1347.27 233.221C1348.26 236.607 1349.61 239.596 1351.3 242.186C1352.99 244.775 1355.04 246.817 1357.43 248.312C1359.92 249.806 1362.61 250.553 1365.49 250.553C1370.38 250.553 1374.51 248.61 1377.9 244.726V260.265C1375.51 261.56 1372.72 262.655 1369.53 263.552C1366.44 264.349 1363.15 264.747 1359.67 264.747C1355.68 264.747 1351.75 264.05 1347.86 262.655C1344.08 261.161 1340.69 258.771 1337.7 255.483C1333.92 251.2 1331.13 245.921 1329.34 239.646C1327.54 233.271 1326.65 226.945 1326.65 220.67ZM1459.3 178.983C1464.68 179.481 1469.51 180.926 1473.79 183.316C1478.17 185.707 1481.91 188.795 1485 192.58C1488.08 196.365 1490.42 200.698 1492.02 205.579C1493.71 210.46 1494.56 215.54 1494.56 220.819C1494.56 223.21 1494.41 225.601 1494.11 227.991H1442.86V214.843H1477.38C1477.38 212.253 1476.93 209.763 1476.03 207.372C1475.23 204.981 1473.99 202.79 1472.3 200.798C1470.7 198.706 1468.81 196.963 1466.62 195.568C1464.43 194.174 1461.99 193.327 1459.3 193.028V178.983ZM1458.7 249.955C1459.79 249.955 1461.14 249.855 1462.73 249.656C1464.43 249.357 1466.17 248.909 1467.96 248.312C1469.85 247.614 1471.7 246.768 1473.49 245.771C1475.38 244.775 1477.03 243.58 1478.42 242.186L1485 252.196C1481.71 256.28 1477.87 259.368 1473.49 261.46C1469.11 263.552 1463.53 264.598 1456.76 264.598C1451.28 264.598 1446.15 263.502 1441.37 261.311C1436.59 259.02 1432.5 255.932 1429.11 252.047C1425.73 248.162 1423.04 243.63 1421.05 238.45C1419.05 233.271 1418.06 227.692 1418.06 221.716C1418.06 216.038 1418.95 210.659 1420.75 205.579C1422.64 200.499 1425.18 196.066 1428.37 192.281C1431.56 188.396 1435.24 185.259 1439.42 182.868C1443.71 180.478 1448.29 179.133 1453.17 178.834V193.178C1449.48 193.875 1446.45 195.369 1444.06 197.66C1441.67 199.951 1439.77 202.591 1438.38 205.579C1437.08 208.468 1436.14 211.456 1435.54 214.544C1435.04 217.632 1434.79 220.271 1434.79 222.463C1434.79 226.348 1435.24 229.983 1436.14 233.37C1437.13 236.657 1438.63 239.546 1440.62 242.036C1442.61 244.427 1445.05 246.369 1447.94 247.863C1450.93 249.258 1454.52 249.955 1458.7 249.955Z" fill="#F73C4A"/>
<path d="M1112.56 309.357L1114.93 316.933H1121.71L1112.87 289.491H1104.72L1096 316.933H1099.93L1102.29 309.357H1112.56ZM1111.56 306.136H1103.29L1107.46 292.832L1111.56 306.136ZM1168.07 298.201C1170.14 298.201 1171.2 299.971 1171.24 303.511L1176.96 302.914C1176.8 300.21 1176.01 298.201 1174.61 296.889C1173.24 295.577 1170.93 294.921 1167.7 294.921C1163.63 294.921 1160.89 296.054 1159.47 298.32C1158.31 300.229 1157.73 302.854 1157.73 306.195C1157.73 311.723 1159.35 315.183 1162.59 316.574C1163.96 317.171 1165.66 317.469 1167.7 317.469C1170.97 317.469 1173.3 316.774 1174.67 315.382C1176.07 313.99 1176.86 311.882 1177.03 309.058L1171.24 308.819C1171.2 312.399 1170.14 314.188 1168.07 314.188C1166.82 314.188 1165.93 313.612 1165.39 312.458C1164.89 311.305 1164.64 309.217 1164.64 306.195C1164.64 303.133 1164.89 301.044 1165.39 299.931C1165.89 298.778 1166.78 298.201 1168.07 298.201ZM1228.26 314.427L1230.01 316.933H1234.62V302.377C1234.62 297.405 1231.44 294.921 1225.09 294.921C1221.89 294.921 1219.62 295.537 1218.25 296.769C1216.88 297.963 1216.07 299.832 1215.82 302.377L1221.55 303.033C1221.71 299.812 1222.83 298.201 1224.9 298.201C1226.77 298.201 1227.7 299.454 1227.7 301.959V304.107L1223.84 304.823C1220.57 305.38 1218.25 306.156 1216.88 307.149C1215.51 308.104 1214.82 309.516 1214.82 311.385C1214.82 313.254 1215.4 314.745 1216.57 315.859C1217.77 316.933 1219.35 317.469 1221.3 317.469C1224.2 317.469 1226.52 316.456 1228.26 314.427ZM1220.99 311.206C1220.99 309.178 1222.29 307.886 1224.9 307.328L1227.7 306.792V312.101C1226.46 313.373 1225.27 314.009 1224.15 314.009C1222.04 314.009 1220.99 313.075 1220.99 311.206ZM1293.9 288L1286.93 288.835V295.875C1285.65 295.239 1284.24 294.921 1282.7 294.921C1276.43 294.921 1273.3 298.837 1273.3 306.672C1273.3 313.87 1276.1 317.469 1281.7 317.469C1283.9 317.469 1285.9 316.615 1287.68 314.905L1289.18 316.933H1293.9V288ZM1283.7 314.188C1281.37 314.188 1280.21 311.604 1280.21 306.433C1280.21 301.264 1281.74 298.678 1284.82 298.678C1285.56 298.678 1286.27 298.837 1286.93 299.155V312.697C1286.06 313.691 1284.98 314.188 1283.7 314.188ZM1353.1 307.09V306.374C1353.1 298.738 1349.78 294.921 1343.13 294.921C1336.32 294.921 1332.93 298.678 1332.93 306.195C1332.93 309.973 1333.72 312.797 1335.3 314.665C1336.9 316.535 1339.46 317.469 1342.95 317.469C1346.47 317.469 1348.94 316.873 1350.36 315.68C1351.77 314.487 1352.58 312.856 1352.79 310.788L1347.06 310.669C1347.06 313.015 1345.93 314.188 1343.69 314.188C1342.36 314.188 1341.39 313.691 1340.77 312.697C1340.14 311.663 1339.83 309.794 1339.83 307.09H1353.1ZM1346.37 303.809H1339.96C1340.12 301.621 1340.43 300.15 1340.89 299.394C1341.39 298.599 1342.16 298.201 1343.19 298.201C1344.27 298.201 1345.04 298.658 1345.5 299.573C1346 300.449 1346.29 301.861 1346.37 303.809ZM1410.94 297.307C1409.61 295.716 1407.68 294.921 1405.14 294.921C1402.62 294.921 1400.09 295.736 1397.56 297.366L1395.25 295.457H1392.08V316.933H1399.05V299.514C1400.09 298.957 1401.19 298.678 1402.35 298.678C1404.38 298.678 1405.39 299.693 1405.39 301.721V316.933H1412.31V301.84C1412.31 301.323 1412.22 300.587 1412.06 299.633C1413.18 298.996 1414.32 298.678 1415.48 298.678C1417.56 298.678 1418.6 299.693 1418.6 301.721V316.933H1425.57V301.84C1425.57 299.812 1424.95 298.161 1423.7 296.889C1422.5 295.577 1420.65 294.921 1418.16 294.921C1415.71 294.921 1413.3 295.716 1410.94 297.307ZM1484 295.457H1480.01L1475.28 309.476L1469.31 295.457H1462.4L1472.3 317.648L1468.25 325.464L1473.35 326L1484 295.457Z" fill="#0071BC"/>
<path d="M1010 307H1069" stroke="#0071BC" stroke-width="11"/>
</svg>
